<svg width="213" height="30" viewBox="0 0 213 30" fill="none" xmlns="http://www.w3.org/2000/svg">
<path d="M0 3C0 1.34315 1.34315 0 3 0H177V30H3C1.34315 30 0 28.6569 0 27V3Z" fill="#FF7647"/>
<path d="M23.4238 9.04688V10.6533H18.9395V19H16.8955V9.04688H23.4238ZM27.3477 17.332V14.0371C27.3477 13.8001 27.3089 13.5973 27.2314 13.4287C27.154 13.2555 27.0332 13.1211 26.8691 13.0254C26.7096 12.9297 26.5023 12.8818 26.2471 12.8818C26.0283 12.8818 25.8392 12.9206 25.6797 12.998C25.5202 13.071 25.3971 13.1781 25.3105 13.3193C25.224 13.4561 25.1807 13.6178 25.1807 13.8047H23.2119C23.2119 13.4902 23.2848 13.1917 23.4307 12.9092C23.5765 12.6266 23.7884 12.3783 24.0664 12.1641C24.3444 11.9453 24.6748 11.7744 25.0576 11.6514C25.445 11.5283 25.8779 11.4668 26.3564 11.4668C26.9307 11.4668 27.4411 11.5625 27.8877 11.7539C28.3343 11.9453 28.6852 12.2324 28.9404 12.6152C29.2002 12.998 29.3301 13.4766 29.3301 14.0508V17.2158C29.3301 17.6214 29.3551 17.9541 29.4053 18.2139C29.4554 18.4691 29.5283 18.6924 29.624 18.8838V19H27.6348C27.5391 18.7995 27.4661 18.5488 27.416 18.248C27.3704 17.9427 27.3477 17.6374 27.3477 17.332ZM27.6074 14.4951L27.6211 15.6094H26.5205C26.2607 15.6094 26.0352 15.639 25.8438 15.6982C25.6523 15.7575 25.4951 15.8418 25.3721 15.9512C25.249 16.056 25.1579 16.179 25.0986 16.3203C25.0439 16.4616 25.0166 16.6165 25.0166 16.7852C25.0166 16.9538 25.0553 17.1064 25.1328 17.2432C25.2103 17.3753 25.3219 17.4801 25.4678 17.5576C25.6136 17.6305 25.7845 17.667 25.9805 17.667C26.2767 17.667 26.5342 17.6077 26.7529 17.4893C26.9717 17.3708 27.1403 17.2249 27.2588 17.0518C27.3818 16.8786 27.4456 16.7145 27.4502 16.5596L27.9697 17.3936C27.8968 17.5804 27.7965 17.7741 27.6689 17.9746C27.5459 18.1751 27.3887 18.3643 27.1973 18.542C27.0059 18.7152 26.7757 18.8587 26.5068 18.9727C26.238 19.082 25.9189 19.1367 25.5498 19.1367C25.0804 19.1367 24.6543 19.0433 24.2715 18.8564C23.8932 18.665 23.5924 18.403 23.3691 18.0703C23.1504 17.7331 23.041 17.3503 23.041 16.9219C23.041 16.5345 23.1139 16.1904 23.2598 15.8896C23.4056 15.5889 23.6198 15.3359 23.9023 15.1309C24.1895 14.9212 24.5472 14.764 24.9756 14.6592C25.404 14.5498 25.9007 14.4951 26.4658 14.4951H27.6074ZM32.8164 13.0254V21.8438H30.8477V11.6035H32.6729L32.8164 13.0254ZM37.499 15.2197V15.3633C37.499 15.901 37.4352 16.4001 37.3076 16.8604C37.1846 17.3206 37.0023 17.7217 36.7607 18.0635C36.5192 18.4007 36.2184 18.665 35.8584 18.8564C35.5029 19.0433 35.0928 19.1367 34.6279 19.1367C34.1768 19.1367 33.7848 19.0456 33.4521 18.8633C33.1195 18.681 32.8392 18.4258 32.6113 18.0977C32.388 17.765 32.208 17.3799 32.0713 16.9424C31.9346 16.5049 31.8298 16.0355 31.7568 15.5342V15.1582C31.8298 14.6204 31.9346 14.1283 32.0713 13.6816C32.208 13.2305 32.388 12.8408 32.6113 12.5127C32.8392 12.18 33.1172 11.9225 33.4453 11.7402C33.778 11.5579 34.1676 11.4668 34.6143 11.4668C35.0837 11.4668 35.4961 11.5557 35.8516 11.7334C36.2116 11.9111 36.5124 12.1663 36.7539 12.499C37 12.8317 37.1846 13.2282 37.3076 13.6885C37.4352 14.1488 37.499 14.6592 37.499 15.2197ZM35.5234 15.3633V15.2197C35.5234 14.9053 35.4961 14.6159 35.4414 14.3516C35.3913 14.0827 35.3092 13.848 35.1953 13.6475C35.0859 13.4469 34.9401 13.292 34.7578 13.1826C34.5801 13.0687 34.3636 13.0117 34.1084 13.0117C33.8395 13.0117 33.6094 13.055 33.418 13.1416C33.2311 13.2282 33.0785 13.3535 32.96 13.5176C32.8415 13.6816 32.7526 13.8776 32.6934 14.1055C32.6341 14.3333 32.5977 14.5908 32.584 14.8779V15.8281C32.6068 16.1654 32.6706 16.4684 32.7754 16.7373C32.8802 17.0016 33.042 17.2113 33.2607 17.3662C33.4795 17.5212 33.7666 17.5986 34.1221 17.5986C34.3818 17.5986 34.6006 17.5417 34.7783 17.4277C34.9561 17.3092 35.0996 17.1475 35.209 16.9424C35.3229 16.7373 35.4027 16.5003 35.4482 16.2314C35.4984 15.9626 35.5234 15.6732 35.5234 15.3633ZM42.7148 17.332V14.0371C42.7148 13.8001 42.6761 13.5973 42.5986 13.4287C42.5212 13.2555 42.4004 13.1211 42.2363 13.0254C42.0768 12.9297 41.8695 12.8818 41.6143 12.8818C41.3955 12.8818 41.2064 12.9206 41.0469 12.998C40.8874 13.071 40.7643 13.1781 40.6777 13.3193C40.5911 13.4561 40.5479 13.6178 40.5479 13.8047H38.5791C38.5791 13.4902
38.652 13.1917 38.7979 12.9092C38.9437 12.6266 39.1556 12.3783 39.4336 12.1641C39.7116 11.9453 40.042 11.7744 40.4248 11.6514C40.8122 11.5283 41.2451 11.4668 41.7236 11.4668C42.2979 11.4668 42.8083 11.5625 43.2549 11.7539C43.7015 11.9453 44.0524 12.2324 44.3076 12.6152C44.5674 12.998 44.6973 13.4766 44.6973 14.0508V17.2158C44.6973 17.6214 44.7223 17.9541 44.7725 18.2139C44.8226 18.4691 44.8955 18.6924 44.9912 18.8838V19H43.002C42.9062 18.7995 42.8333 18.5488 42.7832 18.248C42.7376 17.9427 42.7148 17.6374 42.7148 17.332ZM42.9746 14.4951L42.9883 15.6094H41.8877C41.6279 15.6094 41.4023 15.639 41.2109 15.6982C41.0195 15.7575 40.8623 15.8418 40.7393 15.9512C40.6162 16.056 40.5251 16.179 40.4658 16.3203C40.4111 16.4616 40.3838 16.6165 40.3838 16.7852C40.3838 16.9538 40.4225 17.1064 40.5 17.2432C40.5775 17.3753 40.6891 17.4801 40.835 17.5576C40.9808 17.6305 41.1517 17.667 41.3477 17.667C41.6439 17.667 41.9014 17.6077 42.1201 17.4893C42.3389 17.3708 42.5075 17.2249 42.626 17.0518C42.749 16.8786 42.8128 16.7145 42.8174 16.5596L43.3369 17.3936C43.264 17.5804 43.1637 17.7741 43.0361 17.9746C42.9131 18.1751 42.7559 18.3643 42.5645 18.542C42.373 18.7152 42.1429 18.8587 41.874 18.9727C41.6051 19.082 41.2861 19.1367 40.917 19.1367C40.4476 19.1367 40.0215 19.0433 39.6387 18.8564C39.2604 18.665 38.9596 18.403 38.7363 18.0703C38.5176 17.7331 38.4082 17.3503 38.4082 16.9219C38.4082 16.5345 38.4811 16.1904 38.627 15.8896C38.7728 15.5889 38.987 15.3359 39.2695 15.1309C39.5566 14.9212 39.9144 14.764 40.3428 14.6592C40.7712 14.5498 41.2679 14.4951 41.833 14.4951H42.9746ZM51.2803 14.5908V16.1221H47.5205V14.5908H51.2803ZM48.1768 11.6035V19H46.208V11.6035H48.1768ZM52.6133 11.6035V19H50.6377V11.6035H52.6133ZM57.9111 11.6035V19H55.9355V11.6035H57.9111ZM60.29 11.6035V13.1279H53.5908V11.6035H60.29ZM63.2568 16.252L65.7383 11.6035H67.707V19H65.7383V14.3447L63.2568 19H61.2881V11.6035H63.2568V16.252ZM70.8174 15.3086H72.8135L70.7559 19H68.7666L70.8174 15.3086ZM72.1436 11.6035H75.3906V19H73.4219V13.1279H72.1436C71.8747 13.1279 71.6514 13.1781 71.4736 13.2783C71.2959 13.374 71.1637 13.4993 71.0771 13.6543C70.9951 13.8047 70.9541 13.9596 70.9541 14.1191C70.9541 14.2741 70.9951 14.4245 71.0771 14.5703C71.1592 14.7161 71.2868 14.8369 71.46 14.9326C71.6331 15.0283 71.8496 15.0762 72.1094 15.0762H74.1533V16.416H72.1094C71.6217 16.416 71.1842 16.3568 70.7969 16.2383C70.4141 16.1198 70.0859 15.9557 69.8125 15.7461C69.5436 15.5319 69.3363 15.2835 69.1904 15.001C69.0492 14.7139 68.9785 14.3994 68.9785 14.0576C68.9785 13.7021 69.0514 13.3763 69.1973 13.0801C69.3431 12.7839 69.5527 12.5241 69.8262 12.3008C70.0996 12.0775 70.43 11.9066 70.8174 11.7881C71.2093 11.665 71.6514 11.6035 72.1436 11.6035ZM85.5215 11.6035V13.1484H81.8848V11.6035H85.5215ZM86.9639 11.6035V19H84.9951V11.6035H86.9639ZM81.3926 11.6035H83.3271L83.1289 15.3359C83.1016 15.8691 83.0446 16.3385 82.958 16.7441C82.8714 17.1497 82.7552 17.4961 82.6094 17.7832C82.4681 18.0703 82.2972 18.305 82.0967 18.4873C81.9007 18.665 81.6706 18.7949 81.4062 18.877C81.1465 18.959 80.8594 19 80.5449 19H79.9434L79.9229 17.4482L80.1758 17.4209C80.3216 17.4072 80.4492 17.3662 80.5586 17.2979C80.6725 17.2249 80.7682 17.1224 80.8457 16.9902C80.9277 16.8535 80.9961 16.6826 81.0508 16.4775C81.1055 16.2679 81.1488 16.0218 81.1807 15.7393C81.2171 15.4567 81.2422 15.1309 81.2559 14.7617L81.3926 11.6035ZM90.6826 18.166L92.6445 11.6035H94.7568L91.7832 20.1143C91.7194 20.3011 91.6328 20.5016 91.5234 20.7158C91.4186 20.93 91.2751 21.1328 91.0928 21.3242C90.915 21.5202 90.6895 21.6797 90.416 21.8027C90.1471 21.9258 89.8167 21.9873 89.4248 21.9873C89.238 21.9873 89.0853 21.9759 88.9668 21.9531C88.8483 21.9303 88.707 21.8984 88.543 21.8574V20.415C88.5931 20.415 88.6455 20.415 88.7002 20.415C88.7549 20.4196 88.8073 20.4219 88.8574 20.4219C89.1172 20.4219 89.3291 20.3923 89.4932 20.333C89.6572 20.2738 89.7894 20.1826 89.8896 20.0596C89.9899 19.9411 90.0697 19.7861 90.1289 19.5947L90.6826 18.166ZM89.8623 11.6035L91.4688 16.9629L91.749 19.0479L90.4092 19.1914L87.75 11.6035H89.8623ZM101.777 11.6035V19H99.8018V11.6035H101.777ZM100.848
14.7686V16.3066C100.697 16.3841 100.504 16.457 100.267 16.5254C100.03 16.5938 99.779 16.6484 99.5146 16.6895C99.2549 16.7259 99.0133 16.7441 98.79 16.7441C98.0791 16.7441 97.4684 16.6462 96.958 16.4502C96.4521 16.2542 96.0625 15.9466 95.7891 15.5273C95.5156 15.1081 95.3789 14.5703 95.3789 13.9141V11.5967H97.3477V13.9141C97.3477 14.2467 97.3978 14.5088 97.498 14.7002C97.5983 14.887 97.7533 15.0192 97.9629 15.0967C98.1771 15.1696 98.4528 15.2061 98.79 15.2061C99.027 15.2061 99.2572 15.1878 99.4805 15.1514C99.7038 15.1149 99.9271 15.0648 100.15 15.001C100.374 14.9372 100.606 14.8597 100.848 14.7686ZM103.288 11.6035H105.257V17.4619H107.301V11.6035H109.283V17.4619H111.32V11.6035H113.289V19H103.288V11.6035ZM118.279 19.1367C117.705 19.1367 117.19 19.0456 116.734 18.8633C116.279 18.6764 115.891 18.4189 115.572 18.0908C115.258 17.7627 115.016 17.3822 114.848 16.9492C114.679 16.5117 114.595 16.0469 114.595 15.5547V15.2812C114.595 14.7207 114.674 14.208 114.834 13.7432C114.993 13.2783 115.221 12.875 115.518 12.5332C115.818 12.1914 116.183 11.9294 116.611 11.7471C117.04 11.5602 117.523 11.4668 118.061 11.4668C118.585 11.4668 119.049 11.5534 119.455 11.7266C119.861 11.8997 120.2 12.1458 120.474 12.4648C120.752 12.7839 120.961 13.1667 121.103 13.6133C121.244 14.0553 121.314 14.5475 121.314 15.0898V15.9102H115.436V14.5977H119.38V14.4473C119.38 14.1738 119.33 13.93 119.229 13.7158C119.134 13.4971 118.988 13.3239 118.792 13.1963C118.596 13.0687 118.345 13.0049 118.04 13.0049C117.78 13.0049 117.557 13.0618 117.37 13.1758C117.183 13.2897 117.031 13.4492 116.912 13.6543C116.798 13.8594 116.712 14.1009 116.652 14.3789C116.598 14.6523 116.57 14.9531 116.57 15.2812V15.5547C116.57 15.8509 116.611 16.1243 116.693 16.375C116.78 16.6257 116.901 16.8421 117.056 17.0244C117.215 17.2067 117.407 17.348 117.63 17.4482C117.858 17.5485 118.115 17.5986 118.402 17.5986C118.758 17.5986 119.088 17.5303 119.394 17.3936C119.703 17.2523 119.97 17.0404 120.193 16.7578L121.15 17.7969C120.995 18.0202 120.784 18.2344 120.515 18.4395C120.25 18.6445 119.931 18.8132 119.558 18.9453C119.184 19.0729 118.758 19.1367 118.279 19.1367ZM124.397 16.252L126.879 11.6035H128.848V19H126.879V14.3447L124.397 19H122.429V11.6035H124.397V16.252ZM126.653 8.62988H128.055C128.055 9.02181 127.957 9.37044 127.761 9.67578C127.569 9.97656 127.296 10.2135 126.94 10.3867C126.585 10.5553 126.166 10.6396 125.683 10.6396C124.949 10.6396 124.368 10.4528 123.939 10.0791C123.516 9.7054 123.304 9.22233 123.304 8.62988H124.698C124.698 8.86686 124.771 9.07878 124.917 9.26562C125.067 9.45247 125.323 9.5459 125.683 9.5459C126.038 9.5459 126.289 9.45247 126.435 9.26562C126.58 9.07878 126.653 8.86686 126.653 8.62988ZM133.845 19V11.6035H135.813V17.4619H138.288V11.6035H140.264V19H133.845ZM141.371 17.4688L141.241 21.1943H139.409V19H138.582V17.4688H141.371ZM145.773 19.1367C145.199 19.1367 144.684 19.0456 144.229 18.8633C143.773 18.6764 143.385 18.4189 143.066 18.0908C142.752 17.7627 142.51 17.3822 142.342 16.9492C142.173 16.5117 142.089 16.0469 142.089 15.5547V15.2812C142.089 14.7207 142.169 14.208 142.328 13.7432C142.488 13.2783 142.715 12.875 143.012 12.5332C143.312 12.1914 143.677 11.9294 144.105 11.7471C144.534 11.5602 145.017 11.4668 145.555 11.4668C146.079 11.4668 146.544 11.5534 146.949 11.7266C147.355 11.8997 147.694 12.1458 147.968 12.4648C148.246 12.7839 148.455 13.1667 148.597 13.6133C148.738 14.0553 148.809 14.5475 148.809 15.0898V15.9102H142.93V14.5977H146.874V14.4473C146.874 14.1738 146.824 13.93 146.724 13.7158C146.628 13.4971 146.482 13.3239 146.286 13.1963C146.09 13.0687 145.84 13.0049 145.534 13.0049C145.274 13.0049 145.051 13.0618 144.864 13.1758C144.677 13.2897 144.525 13.4492 144.406 13.6543C144.292 13.8594 144.206 14.1009 144.146 14.3789C144.092 14.6523 144.064 14.9531 144.064 15.2812V15.5547C144.064 15.8509 144.105 16.1243 144.188 16.375C144.274 16.6257 144.395 16.8421 144.55 17.0244C144.709 17.2067 144.901 17.348 145.124 17.4482C145.352 17.5485 145.609 17.5986 145.896 17.5986C146.252 17.5986 146.582 17.5303 146.888 17.3936C147.198 17.2523 147.464 17.0404 147.688 16.7578L148.645
17.7969C148.49 18.0202 148.278 18.2344 148.009 18.4395C147.744 18.6445 147.425 18.8132 147.052 18.9453C146.678 19.0729 146.252 19.1367 145.773 19.1367ZM154.995 14.5908V16.1221H151.235V14.5908H154.995ZM151.892 11.6035V19H149.923V11.6035H151.892ZM156.328 11.6035V19H154.353V11.6035H156.328ZM159.22 13.7979H161.366C162.041 13.7979 162.615 13.9095 163.089 14.1328C163.567 14.3516 163.932 14.6569 164.183 15.0488C164.438 15.4408 164.565 15.8942 164.565 16.4092C164.565 16.7829 164.493 17.1292 164.347 17.4482C164.205 17.7627 163.998 18.0361 163.725 18.2686C163.451 18.501 163.116 18.681 162.72 18.8086C162.323 18.9362 161.872 19 161.366 19H157.989V11.6035H159.965V17.4688H161.366C161.662 17.4688 161.899 17.4209 162.077 17.3252C162.259 17.2249 162.392 17.0951 162.474 16.9355C162.56 16.776 162.604 16.6029 162.604 16.416C162.604 16.2201 162.56 16.0423 162.474 15.8828C162.392 15.7188 162.259 15.5866 162.077 15.4863C161.899 15.3861 161.662 15.3359 161.366 15.3359H159.22V13.7979ZM167.724 11.6035V19H165.755V11.6035H167.724ZM171.675 9.04688L171.449 15.958H169.809L169.576 9.04688H171.675ZM169.521 18.0977C169.521 17.806 169.622 17.5645 169.822 17.373C170.027 17.1771 170.296 17.0791 170.629 17.0791C170.966 17.0791 171.235 17.1771 171.436 17.373C171.636 17.5645 171.736 17.806 171.736 18.0977C171.736 18.3802 171.636 18.6195 171.436 18.8154C171.235 19.0114 170.966 19.1094 170.629 19.1094C170.296 19.1094 170.027 19.0114 169.822 18.8154C169.622 18.6195 169.521 18.3802 169.521 18.0977Z" fill="white"/>
<path fill-rule="evenodd" clip-rule="evenodd" d="M198.302 0H177V30H198.357C198.963 30 199.545 29.7604 199.982 29.3313L212.278 17.2634C213.214 16.3449 213.244 14.8246 212.345 13.8686L199.994 0.736539C199.551 0.26595 198.94 0 198.302 0ZM191.085 19.2C193.678 19.2 195.78 17.051 195.78 14.4C195.78 11.749 193.678 9.6 191.085 9.6C188.492 9.6 186.39 11.749 186.39 14.4C186.39 17.051 188.492 19.2 191.085 19.2Z" fill="#FF7647"/>
</svg>
